<?xml version="1.0" encoding="UTF-8" standalone="no"?><!DOCTYPE svg PUBLIC "-//W3C//DTD SVG 1.1//EN" "http://www.w3.org/Graphics/SVG/1.1/DTD/svg11.dtd"><svg width="100%" height="100%" viewBox="0 0 1143 117" version="1.1" xmlns="http://www.w3.org/2000/svg" xmlns:xlink="http://www.w3.org/1999/xlink" xml:space="preserve" xmlns:serif="http://www.serif.com/" style="fill-rule:evenodd;clip-rule:evenodd;stroke-linejoin:round;stroke-miterlimit:2;"><path d="M0,2.813l37.969,0c7.083,0 14.166,1.041 21.25,3.125c7.083,2.083 13.489,5.364 19.218,9.843c5.73,4.479 10.365,10.209 13.907,17.188c3.541,6.979 5.312,15.364 5.312,25.156c0,9.479 -1.771,17.682 -5.312,24.609c-3.542,6.927 -8.177,12.657 -13.907,17.188c-5.729,4.531 -12.135,7.917 -19.218,10.156c-7.084,2.24 -14.167,3.36 -21.25,3.36l-37.969,0l0,-110.625Zm15.469,97.031l19.375,0c6.666,0 12.838,-0.938 18.515,-2.813c5.677,-1.875 10.573,-4.583 14.688,-8.125c4.114,-3.541 7.318,-7.916 9.609,-13.125c2.292,-5.208 3.438,-11.093 3.438,-17.656c0,-6.875 -1.146,-12.917 -3.438,-18.125c-2.291,-5.208 -5.495,-9.557 -9.609,-13.047c-4.115,-3.489 -9.011,-6.146 -14.688,-7.969c-5.677,-1.823 -11.849,-2.734 -18.515,-2.734l-19.375,0l0,83.594Z" style="fill-rule:nonzero;"/><path d="M119.687,113.438l-17.187,0l47.969,-110.625l14.062,0l47.5,110.625l-17.5,0l-11.25,-27.188l-52.5,0l-11.094,27.188Zm16.563,-40.782l41.406,0l-20.625,-51.875l-20.781,51.875Z" style="fill-rule:nonzero;"/><path d="M304.219,91.25l0.312,0l0,-88.437l15.469,0l0,110.625l-19.531,0l-58.438,-90.313l-0.312,0l0,90.313l-15.469,0l0,-110.625l20.156,0l57.813,88.437Z" style="fill-rule:nonzero;"/><rect x="346.875" y="2.813" width="15.469" height="110.625" style="fill-rule:nonzero;"/><path d="M404.688,99.688l57.812,0l0,13.75l-73.281,0l0,-110.625l70.937,0l0,13.593l-55.468,0l0,33.125l52.187,0l0,13.282l-52.187,0l0,36.875Z" style="fill-rule:nonzero;"/><path d="M498.594,99.688l49.375,0l0,13.75l-64.844,0l0,-110.625l15.469,0l0,96.875Z" style="fill-rule:nonzero;"/><path d="M681.719,25.625c-3.334,-3.646 -7.578,-6.562 -12.735,-8.75c-5.156,-2.187 -10.911,-3.281 -17.265,-3.281c-6.459,0 -12.292,1.172 -17.5,3.515c-5.209,2.344 -9.636,5.547 -13.282,9.61c-3.645,4.062 -6.458,8.776 -8.437,14.14c-1.979,5.365 -2.969,11.068 -2.969,17.11c0,6.146 0.99,11.927 2.969,17.344c1.979,5.416 4.792,10.13 8.438,14.14c3.645,4.011 8.125,7.162 13.437,9.453c5.313,2.292 11.25,3.438 17.813,3.438c5.208,0 10,-0.469 14.375,-1.406c4.375,-0.938 8.177,-2.292 11.406,-4.063l0,-30.781l-24.531,0l0,-13.125l39.843,0l0,53.594c-5.833,3.125 -12.187,5.52 -19.062,7.187c-6.875,1.667 -14.375,2.5 -22.5,2.5c-8.646,0 -16.589,-1.432 -23.828,-4.297c-7.24,-2.864 -13.464,-6.875 -18.672,-12.031c-5.209,-5.156 -9.271,-11.302 -12.188,-18.438c-2.916,-7.135 -4.375,-14.974 -4.375,-23.515c0,-8.646 1.485,-16.537 4.453,-23.672c2.969,-7.136 7.084,-13.229 12.344,-18.281c5.261,-5.052 11.485,-8.985 18.672,-11.797c7.188,-2.813 15,-4.219 23.438,-4.219c8.854,0 16.744,1.302 23.671,3.906c6.927,2.604 12.683,6.094 17.266,10.469l-10.781,11.25Z" style="fill-rule:nonzero;"/><rect x="719.844" y="2.813" width="15.469" height="110.625" style="fill-rule:nonzero;"/><path d="M777.656,99.688l49.375,0l0,13.75l-64.844,0l0,-110.625l15.469,0l0,96.875Z" style="fill-rule:nonzero;"/><path d="M845.312,88.75c0.834,3.958 2.657,7.24 5.469,9.844c2.813,2.604 6.302,3.906 10.469,3.906c3.333,0 6.068,-0.625 8.203,-1.875c2.136,-1.25 3.828,-2.943 5.078,-5.078c1.25,-2.136 2.136,-4.636 2.656,-7.5c0.521,-2.865 0.782,-5.912 0.782,-9.141l0,-76.093l15.468,0l0,76.718c0,3.854 -0.416,7.917 -1.25,12.188c-0.833,4.271 -2.395,8.229 -4.687,11.875c-2.292,3.646 -5.495,6.666 -9.609,9.062c-4.115,2.396 -9.401,3.594 -15.86,3.594c-8.437,0 -15.312,-2.187 -20.625,-6.562c-5.312,-4.375 -8.802,-10 -10.469,-16.875l14.375,-4.063Z" style="fill-rule:nonzero;"/><path d="M922.031,113.438l-17.187,0l47.968,-110.625l14.063,0l47.5,110.625l-17.5,0l-11.25,-27.188l-52.5,0l-11.094,27.188Zm16.563,-40.782l41.406,0l-20.625,-51.875l-20.781,51.875Z" style="fill-rule:nonzero;"/><path d="M1085.78,87.813l0.313,0l32.656,-85l24.062,0l0,110.625l-15.468,0l0,-92.5l-0.313,0l-36.719,92.5l-9.843,0l-36.563,-92.5l-0.312,0l0,92.5l-15,0l0,-110.625l24.062,0l33.125,85Z" style="fill-rule:nonzero;"/></svg>