<?xml version="1.0" encoding="UTF-8" standalone="no"?><!DOCTYPE svg PUBLIC "-//W3C//DTD SVG 1.1//EN" "http://www.w3.org/Graphics/SVG/1.1/DTD/svg11.dtd"><svg width="100%" height="100%" viewBox="0 0 1127 117" version="1.1" xmlns="http://www.w3.org/2000/svg" xmlns:xlink="http://www.w3.org/1999/xlink" xml:space="preserve" xmlns:serif="http://www.serif.com/" style="fill-rule:evenodd;clip-rule:evenodd;stroke-linejoin:round;stroke-miterlimit:2;"><path d="M0,2.813l36.719,0c6.875,0 13.776,1.145 20.703,3.437c6.927,2.292 13.177,5.755 18.75,10.391c5.573,4.635 10.078,10.416 13.516,17.343c3.437,6.927 5.156,14.974 5.156,24.141c0,9.271 -1.719,17.344 -5.156,24.219c-3.438,6.875 -7.943,12.63 -13.516,17.265c-5.573,4.636 -11.823,8.099 -18.75,10.391c-6.927,2.292 -13.828,3.438 -20.703,3.438l-36.719,0l0,-110.625Zm11.25,100.625l22.344,0c8.333,0 15.599,-1.303 21.797,-3.907c6.198,-2.604 11.328,-6.015 15.39,-10.234c4.063,-4.219 7.11,-9.037 9.141,-14.453c2.031,-5.417 3.047,-10.99 3.047,-16.719c0,-5.729 -1.016,-11.302 -3.047,-16.719c-2.031,-5.416 -5.078,-10.234 -9.141,-14.453c-4.062,-4.219 -9.192,-7.63 -15.39,-10.234c-6.198,-2.604 -13.464,-3.906 -21.797,-3.906l-22.344,0l0,90.625Z" style="fill-rule:nonzero;"/><path d="M113.75,113.438l-12.344,0l47.813,-110.625l10.937,0l47.5,110.625l-12.5,0l-12.187,-29.063l-57.188,0l-12.031,29.063Zm16.25,-39.375l48.75,0l-24.375,-58.75l-24.375,58.75Z" style="fill-rule:nonzero;"/><path d="M302.344,97.031l0.312,0l0,-94.218l11.25,0l0,110.625l-14.062,0l-64.375,-95.157l-0.313,0l0,95.157l-11.25,0l0,-110.625l14.063,0l64.375,94.218Z" style="fill-rule:nonzero;"/><rect x="343.281" y="2.813" width="11.25" height="110.625" style="fill-rule:nonzero;"/><path d="M395.156,103.438l59.219,0l0,10l-70.469,0l0,-110.625l68.594,0l0,10l-57.344,0l0,38.125l53.594,0l0,9.843l-53.594,0l0,42.657Z" style="fill-rule:nonzero;"/><path d="M487.656,103.438l51.563,0l0,10l-62.813,0l0,-110.625l11.25,0l0,100.625Z" style="fill-rule:nonzero;"/><path d="M675.313,22.656c-3.855,-4.062 -8.438,-7.213 -13.75,-9.453c-5.313,-2.239 -11.407,-3.359 -18.282,-3.359c-7.083,0 -13.463,1.302 -19.14,3.906c-5.677,2.604 -10.495,6.12 -14.453,10.547c-3.959,4.427 -7.006,9.557 -9.141,15.391c-2.136,5.833 -3.203,11.979 -3.203,18.437c0,6.458 1.067,12.604 3.203,18.438c2.135,5.833 5.182,10.937 9.14,15.312c3.959,4.375 8.777,7.865 14.454,10.469c5.677,2.604 12.057,3.906 19.14,3.906c6.25,0 11.979,-0.677 17.188,-2.031c5.208,-1.354 9.427,-3.073 12.656,-5.156l0,-33.594l-25.781,0l0,-9.844l37.031,0l0,49.844c-6.042,3.646 -12.552,6.354 -19.531,8.125c-6.979,1.771 -14.219,2.656 -21.719,2.656c-8.333,0 -16.042,-1.458 -23.125,-4.375c-7.083,-2.917 -13.177,-6.953 -18.281,-12.109c-5.104,-5.157 -9.089,-11.276 -11.953,-18.36c-2.865,-7.083 -4.297,-14.843 -4.297,-23.281c0,-8.437 1.458,-16.198 4.375,-23.281c2.916,-7.084 6.953,-13.203 12.109,-18.36c5.156,-5.156 11.25,-9.192 18.281,-12.109c7.032,-2.917 14.662,-4.375 22.891,-4.375c8.854,0 16.563,1.302 23.125,3.906c6.563,2.604 12.188,6.25 16.875,10.938l-7.812,7.812Z" style="fill-rule:nonzero;"/><rect x="713.125" y="2.813" width="11.25" height="110.625" style="fill-rule:nonzero;"/><path d="M765,103.438l51.563,0l0,10l-62.813,0l0,-110.625l11.25,0l0,100.625Z" style="fill-rule:nonzero;"/><path d="M833.125,90.938c0.833,4.375 2.786,8.046 5.859,11.015c3.073,2.969 7.11,4.453 12.11,4.453c3.854,0 7.031,-0.703 9.531,-2.109c2.5,-1.406 4.505,-3.307 6.016,-5.703c1.51,-2.396 2.552,-5.13 3.125,-8.203c0.573,-3.073 0.859,-6.276 0.859,-9.61l0,-77.968l11.25,0l0,78.75c0,3.645 -0.391,7.5 -1.172,11.562c-0.781,4.063 -2.265,7.813 -4.453,11.25c-2.188,3.438 -5.208,6.276 -9.063,8.516c-3.854,2.239 -8.802,3.359 -14.843,3.359c-8.021,0 -14.636,-2.109 -19.844,-6.328c-5.208,-4.219 -8.49,-9.609 -9.844,-16.172l10.469,-2.812Z" style="fill-rule:nonzero;"/><path d="M907.656,113.438l-12.344,0l47.813,-110.625l10.938,0l47.5,110.625l-12.5,0l-12.188,-29.063l-57.188,0l-12.031,29.063Zm16.25,-39.375l48.75,0l-24.375,-58.75l-24.375,58.75Z" style="fill-rule:nonzero;"/><path d="M1072.5,94.375l0.156,0l37.032,-91.562l17.187,0l0,110.625l-11.25,0l0,-96.094l-0.312,0l-40,96.094l-5.938,0l-40,-96.094l-0.312,0l0,96.094l-11.25,0l0,-110.625l17.187,0l37.5,91.562Z" style="fill-rule:nonzero;"/></svg>